<?xml version="1.0" encoding="utf-8"?>
<!-- Generator: Adobe Illustrator 19.1.0, SVG Export Plug-In . SVG Version: 6.00 Build 0)  -->
<svg version="1.1" id="Calque_1" xmlns="http://www.w3.org/2000/svg" xmlns:xlink="http://www.w3.org/1999/xlink" x="0px" y="0px"
	 viewBox="0 0 669.8 672.6" style="enable-background:new 0 0 669.8 672.6;" xml:space="preserve">
<style type="text/css">
	.st0{fill:#FFFFFF;}
	.st1{fill:url(#SVGID_1_);}
</style>
<g>
	<path class="st0" d="M551.1,672.6H118.7C53.2,672.6,0,619.4,0,553.9V118.7C0,53.2,53.2,0,118.7,0h432.4
		c65.6,0,118.7,53.2,118.7,118.7v435.1C669.8,619.4,616.7,672.6,551.1,672.6z"/>
	<linearGradient id="SVGID_1_" gradientUnits="userSpaceOnUse" x1="332.7485" y1="78.2328" x2="332.7485" y2="595.8274">
		<stop  offset="0" style="stop-color:#30C9FF"/>
		<stop  offset="0.9944" style="stop-color:#E100CF"/>
	</linearGradient>
	<path class="st1" d="M591.7,141.3c0-20.9,0-41.7,0-62.6c0-0.1,0.2-0.4-0.6-0.4c-34.1,0-67.4,0-101.6,0c-1.7,0-3.1,0.6-4.7,1.4
		c-15.3,8.2-31.1,17-47.8,17.8c-19.3,0.9-37.8-6.1-55.8-15c-3.8-1.9-7.7-4-11.6-4c-11.3-0.2-23.6-0.2-33.6-0.2
		c-10.1,0-22.4,0.1-33.7,0.2c-3.9,0.1-7.9,2.1-11.7,4c-18,9-36.6,14.8-55.9,13.9c-16.8-0.8-32.7-8.5-48.1-16.6
		c-1.6-0.9-3.4-1.4-5.2-1.4c-34.1-0.1-69.7-0.1-103.8,0c-0.8,0-3.8,0.3-3.8,0.4c0,20.9,0,41.7,0,62.6c18,11.9,29.5,31,29.9,56
		c0.4,23.9-9.4,42.5-25.8,55.6c-1,0.8-4.1,1-4.1,1.5c0,55.2,0,110.3,0,165.5c8,2.9,14,9.4,18.5,16.5c17.1,26.6,14.2,63.3-6,86.6
		c-3.4,4-12.5,6.7-12.5,9.9c0,20.9,0,41.7,0,62.6c0,0.1,4.7,0.4,6.3,0.4c28.2,0,57.1,0.1,85.3-0.1c2.8,0,6.3-1.1,8.8-2.9
		c31.6-22.9,65.6-27.1,100.9-17c12.1,3.5,23.3,9.6,33.8,17.5c1.9,1.4,4.1,2.3,6.3,2.4c6.9,0.1,14.6,0.1,20.7,0.1
		c6,0,13.7,0,20.6-0.1c2.2,0,4.4-0.9,6.3-2.4c10.5-8,21.7-14.1,33.8-17.5c35.4-10.1,69.1-5.9,100.7,17c2.4,1.8,5.6,2.9,8.5,2.9
		c28.2,0.2,54.6,0.1,82.8,0.1c1.6,0,3.1-0.3,3.1-0.4c0-20.9,0-41.7,0-62.6c0-3.3-6.6-6-10-9.9c-20.2-23.3-23.4-59.9-6.3-86.6
		c4.6-7.1,10.3-13.6,16.3-16.5c0-55.2,0-110.3,0-165.5c0-0.5-0.6-0.7-1.5-1.5c-16.5-13.1-26.5-31.7-26.1-55.6
		C564.5,172.2,573.7,153.2,591.7,141.3z M333.8,494.1c-13.1,0-27.4,0.4-42.3,0.9c-33.4,0-66.7,0-100.1,0c-6.1,0-11.3-1.5-15.2-6.4
		c-3-3.7-3.7-8.1-3.7-12.7c0-47.2,0-94.4,0-141.6c0-9.3,0-18.5,0-27.8c0-1.7-0.1-3.3,2.5-3.3c11.3,0.1,22.5,0,33.8,0.1
		c0.5,0,1,0.2,1.8,0.4c-0.9,3.9-1.8,7.6-2.5,11.4c-5.8,29.7-1.3,57.8,13.5,84c11,19.5,26.4,34.8,45.7,46.2
		c24.6,14.5,51.1,20.2,79.3,17.7c23.5-2.1,45-10.1,64.3-23.9c18.7-13.5,32.8-30.7,42-51.7c8.7-19.9,11.7-37.9,9.1-59.5
		c-0.8-7.1-2.4-13.6-3.8-18.6c11.9,0,23.8,0,35.8,0c0.1,0,0.2-0.6,0.2,0.5c0,56.7,0,111.9,0,168.6c0,7-2.3,12-8.7,15.1
		c-2.8,1.4-6.3,1.6-9.5,1.7c-12.1,0.2-24.3-0.1-36.4-0.1c-25.9,0-51.8-0.1-77.7-0.1C352.1,494.5,342.7,494.1,333.8,494.1z
		 M409.9,236.3c-0.1-7.1,0-14.1,0-21.2c0-7.1-0.1-14.1,0-21.2c0.2-11.5,6.3-19.1,17.6-19.6c16.5-0.7,33.1-0.6,49.6,0.1
		c10.4,0.4,16.9,8.4,16.9,18.9c0.1,14.3,0.1,28.7,0,43c0,11.8-7.2,19.5-18.9,19.8c-15.3,0.3-30.7,0.3-46,0
		C417.1,255.9,410.1,248.4,409.9,236.3z M417.5,336c-0.4,36.2-26.9,67.7-61.4,76.1c-7.2,1.8-14.7,2.5-22.1,3.8
		c-25.6-1.2-47.4-10.6-63.8-30.1c-17.2-20.3-23.1-43.9-16.8-70.1c4.9-20.5,14.8-36.4,32.1-47.9c17.6-11.7,39-16.1,60.1-13.2
		c20.8,2.8,38.4,12,52.2,27.8C411.2,297.6,417.7,315.6,417.5,336z"/>
	<path class="st0" d="M583.7,595.8l15.9,0l-23.7-23.6c-20.9-20.8-32.6-49-32.6-78.5V180.6c0-29.5,11.8-57.8,32.8-78.6l23.9-23.7
		h-14.4l-15.3,15.5c-20.8,21.2-49.3,33.1-79,33.1H178.7c-29.6,0-58-11.9-78.8-32.9L84.5,78.3L69,78.2l21.6,21.6
		c20.8,20.8,32.6,49,32.6,78.4v315.6c0,29.3-11.6,57.5-32.3,78.2l-23.7,23.7H84l15.1-15c20.8-20.6,48.8-32.1,78-32.1h313.5
		c29.3,0,57.3,11.6,78.1,32.2L583.7,595.8z M173.4,138.2H493c21.4,0,38.8,17.4,38.8,38.8v321.5c0,21.4-17.4,38.8-38.8,38.8H173.4
		c-21.4,0-38.8-17.4-38.8-38.8V177C134.6,155.6,152,138.2,173.4,138.2z"/>
</g>
<g>
	<path class="st0" d="M169.9,184.8c0-0.6,0.3-0.9,0.9-0.9h28.4c3.3,0,6.1,0.5,8.4,1.6c2.3,1,4.2,2.5,5.6,4.3c1.4,1.8,2.5,4,3.1,6.6
		c0.7,2.6,1,5.3,1,8.4c0,3.1-0.3,6-1,8.5c-0.7,2.5-1.7,4.7-3.1,6.6c-1.4,1.8-3.3,3.2-5.6,4.2c-2.3,1-5.1,1.5-8.4,1.5h-15.5
		c-0.6,0-0.9,0.3-0.9,0.9v20.4c0,0.6-0.3,0.9-0.9,0.9h-11.1c-0.6,0-0.9-0.3-0.9-0.9v-61V184.8z M183.7,195.5c-0.6,0-0.9,0.3-0.9,0.9
		v16.7c0,0.6,0.3,0.9,0.9,0.9h17c1.1,0,1.9-0.4,2.5-1.1c0.6-0.7,1.1-1.6,1.4-2.6c0.3-1,0.5-2,0.6-3.1c0.1-1,0.1-1.9,0.1-2.4
		c0-0.6,0-1.4-0.1-2.4c-0.1-1-0.3-2.1-0.6-3.1c-0.3-1-0.8-1.9-1.4-2.6c-0.6-0.7-1.5-1.1-2.5-1.1H183.7z"/>
	<path class="st0" d="M221.9,197.5c0-4,1.1-7.3,3.3-9.8c2.2-2.5,5.4-3.8,9.5-3.8h30.2c0.8,0,1.2,0.3,1.2,0.9v9.8
		c0,0.6-0.3,0.9-0.9,0.9h-29.4c-0.6,0-0.9,0.3-0.9,1v12.1c0,0.6,0.3,0.9,0.9,0.9H263c0.6,0,0.9,0.3,0.9,0.9v10.2
		c0,0.6-0.3,0.9-0.9,0.9h-27.3c-0.6,0-0.9,0.3-0.9,0.9v12.9c0,0.6,0.3,0.9,0.9,0.9h29.4c0.6,0,0.9,0.3,0.9,0.9v9.8
		c0,0.6-0.3,0.9-0.9,0.9h-34.4c-1.1,0-2.1-0.3-3.2-0.8c-1.1-0.6-2-1.3-2.8-2.2c-0.8-0.9-1.5-1.9-2-3c-0.5-1.1-0.8-2.2-0.8-3.3V197.5
		z"/>
</g>
</svg>
